# xmcd
# 
# Track frame offsets:
#     194
#     21484
#     43397
#     57532
#     71471
#     92394
#     106665
#     120195
#     137319
#     150902
#     163389
# 
# Disc length: 2415
# 
# Revision: 6
# Processed by: cddbd v1.5.2PL0 Copyright (c) Steve Scherf et al.
# Submitted via: fre:ac v1.0.31
# 
DISCID=86096d0b
DTITLE=Delays - You See Colours
DYEAR=2006
DGENRE=Indie
TTITLE0=You and Me
TTITLE1=Valentine
TTITLE2=This Town's Religion
TTITLE3=Sink Like a Stone
TTITLE4=Too Much in Your Life
TTITLE5=Winter's Memory of Summer
TTITLE6=Given Away
TTITLE7=Hideaway
TTITLE8=Lillian
TTITLE9=Out of Nowhere
TTITLE10=Waste of Space
EXTD=
EXTT0=
EXTT1=
EXTT2=
EXTT3=
EXTT4=
EXTT5=
EXTT6=
EXTT7=
EXTT8=
EXTT9=
EXTT10=
PLAYORDER=
